<?xml version="1.0" encoding="UTF-8"?>
<svg id="Capa_1" xmlns="http://www.w3.org/2000/svg" version="1.1" viewBox="0 0 880 233.9">
  <!-- Generator: Adobe Illustrator 29.0.0, SVG Export Plug-In . SVG Version: 2.1.0 Build 186)  -->
  <defs>
    <style>
      .st0 {
        fill: #c59b65;
      }
    </style>
  </defs>
  <path class="st0" d="M96.1,53.3c-.9-1.5-1.9-2.7-2.8-3.6-.9-.9-1.9-1.6-2.8-2-.9-.5-1.9-.8-2.8-.9-.9-.1-1.8-.2-2.7-.2h-41.2v43.3s4.5,7.3,4.5,7.3c.6.9,1.2,1.7,1.7,2.4.3.4.6.8,1,1.1h0c.9,1,1.9,1.7,2.8,2.1.9.5,1.9.8,2.8.9.8.1,1.6.2,2.5.2,0,0,.1,0,.2,0h19.2l-.3-1.7c-.2-1.3-.3-2.6-.3-3.9s0-.8,0-1.3v-1.6c0,0-18.2,0-18.2,0h-.1c-.5,0-1.1-.1-1.8-.6-.5-.3-1.5-1.1-2.8-3.1l-2.8-4.1v-32.5h32.3s.1,0,.1,0c.5,0,1.1.2,1.8.6.5.3,1.5,1.1,2.8,3.1l4.8,7.2,6.4-5.5-4.4-7Z"/>
  <g>
    <path class="st0" d="M576.8,205c-.1,5-4.4,9-9.5,9h-15.6c-2.1,0-3.7-1.7-3.7-3.7v-21.4c0-2.1,1.7-3.7,3.7-3.7h14.1c4.3,0,8.1,3.5,8.1,7.8,0,1.6-.4,3-1.2,4.2,2.5,1.7,4.2,4.6,4.1,7.9ZM553.1,195.5h12.9c1.3,0,2.4-.8,2.7-2.1.4-1.7-.9-3.2-2.6-3.2h-13.1v5.3ZM567.6,208.8c2.4,0,4.3-2,4-4.4-.2-2.1-2.1-3.6-4.2-3.6h-14.3v8.1h14.5Z"/>
    <path class="st0" d="M578.8,213.9h0,0c0,0,0,0,0,0ZM602.4,185.1c2.1,0,3.3,2.4,2,4.1l-8,10.3-.6.8v11c0,1.4-1.2,2.6-2.6,2.6h0c-1.4,0-2.6-1.2-2.6-2.6v-10.9l-.7-.9-8-10.3c-1.3-1.7-.1-4.1,2-4.1h0c.8,0,1.6.4,2,1l7.1,9.3,7.1-9.3c.5-.6,1.2-1,2-1h0ZM607.5,213.9h0c0,0,0,0,0,0Z"/>
  </g>
  <path class="st0" d="M752.9,220.3h-21.8c-1.3,0-2.4,1.1-2.4,2.5s1.1,2.5,2.4,2.5h21.8c1.3,0,2.4-1.1,2.4-2.5s-1.1-2.5-2.4-2.5"/>
  <path class="st0" d="M82.7,98.2c0,10.3,8.4,18.6,18.6,18.6s18.6-8.3,18.6-18.6-8.4-18.6-18.6-18.6-18.6,8.3-18.6,18.6M101.3,86.2c6.6,0,12,5.4,12,12s-5.4,12-12,12-12-5.4-12-12,5.4-12,12-12"/>
  <path class="st0" d="M101.3,102.7c2.5,0,4.5-2,4.5-4.5s-2-4.5-4.5-4.5-4.5,2-4.5,4.5,2,4.5,4.5,4.5"/>
  <path class="st0" d="M115.1,46.7c-1,.1-1.9.4-2.8.9-.9.5-1.8,1.1-2.8,2-.9.9-1.8,2.1-2.8,3.6l-4.3,6.9,6.4,5.5,4.7-7c1.3-2,2.2-2.8,2.8-3.1.7-.4,1.3-.6,1.9-.6h32.4v32.5l-2.8,4.1c-1.3,2-2.2,2.8-2.8,3.1-.5.3-.9.5-1.4.5.9,0,1.7,0,2.5.2,1,.1,1.9.4,2.8.9.9.5,1.8,1.1,2.8,2,.4.4.7.8,1,1.2.6-.7,1.1-1.5,1.7-2.5l4.5-7.3v-43.3s-41.2,0-41.2,0c-.9,0-1.8,0-2.7.2"/>
  <path class="st0" d="M159,108.1l-4.5-7.3c-.6-.9-1.1-1.7-1.7-2.4-.3-.4-.7-.8-1-1.2-.9-.9-1.8-1.6-2.8-2-.9-.5-1.9-.8-2.8-.9-.8,0-1.6-.2-2.5-.2-.2,0-.4,0-.5,0h-17.7s-.9,0-.9,0h0v1.5c.1.4.1.8.1,1.3,0,1.3-.1,2.6-.3,3.9l-.3,1.8h19s.1,0,.1,0c.5,0,1.1.1,1.8.6.5.3,1.5,1.1,2.8,3.1l2.8,4.1v32.5h-32.3s-.1,0-.1,0c-.5,0-1.1-.1-1.8-.6-.5-.3-1.5-1.1-2.8-3.1l-4.8-7.2-6.4,5.5,4.4,7c.9,1.5,1.9,2.7,2.8,3.6.9.9,1.8,1.6,2.8,2,.9.5,1.9.8,2.8.9.9.1,1.8.2,2.7.2h41.2v-43.3Z"/>
  <path class="st0" d="M87.7,152.4c1-.1,1.9-.4,2.8-.9.9-.5,1.8-1.1,2.8-2,.9-.9,1.8-2.1,2.8-3.6l4.3-6.9-6.4-5.5-4.7,7c-1.3,2-2.2,2.8-2.8,3.1-.7.4-1.3.6-1.9.6h-32.4v-32.5l2.8-4.1c1.3-2,2.2-2.8,2.8-3.1.5-.3.9-.5,1.4-.5-.9,0-1.7,0-2.5-.2-1-.1-1.9-.4-2.8-.9-.9-.5-1.8-1.1-2.8-2h0c-.3-.4-.6-.8-1-1.2-.6.7-1.1,1.5-1.7,2.4l-4.5,7.3v43.3s41.2,0,41.2,0c.9,0,1.9,0,2.7-.2"/>
  <path class="st0" d="M79.1,42.3l15.6-16.1c2.3-2.4,6.1-2.5,8.5-.1l16.8,16.2h10.1l-27.1-26.1c-2.4-2.3-6.2-2.2-8.6.2l-.6.7-24.4,25.3h9.6Z"/>
  <path class="st0" d="M120.4,156.7l-14.3,14.8c-2.1,2.2-5.7,2.3-7.9.1l-15.5-14.9h-9.3l24.9,24h0c2.2,2.1,5.7,2.1,7.9-.1l.6-.6,22.4-23.3h-8.9Z"/>
  <path class="st0" d="M186.1,93.3l-.6-.6-23.3-22.4v8.9l14.8,14.3c2.2,2.1,2.3,5.7.1,7.9l-15,15.5v9.3l24-24.9c2.1-2.2,2.1-5.7-.1-7.9"/>
  <path class="st0" d="M17.4,92.7l-.6.6c-2.2,2.1-2.3,5.7-.1,7.9l24,24.9v-9.3l-15-15.5c-2.1-2.2-2.1-5.7.1-7.9l14.8-14.3v-8.9l-23.3,22.4Z"/>
  <path class="st0" d="M544.9,148.6v-84.3c.1-5.1,4.2-9.2,9.3-9.1,5.1,0,9.2,4.1,9.2,9.2v84.3c-.1,5.1-4.2,9.2-9.3,9.1s-9.2-4.1-9.2-9.2"/>
  <path class="st0" d="M340.2,146.4V62.1c.1-5.1,4.2-9.2,9.3-9.1,5.1,0,9.2,4.1,9.2,9.2v84.3c-.1,5.1-4.2,9.2-9.3,9.1-5.1,0-9.2-4.1-9.2-9.2"/>
  <path class="st0" d="M717.9,62.7v88.2c-.1,1.4-1.7,2.2-2.9,1.3l-15.2-11.7-64.7-50v54.7c0,5-4.1,9-9.1,9-5,0-9-4-9-9V57.4c.1-1.4,1.7-2.2,2.9-1.3l15.2,11.7,64.7,50v-55c0-5,4.2-9,9.2-9,4.9,0,8.9,4.1,8.9,9"/>
  <path class="st0" d="M291.2,144.4h0c0,4.9-4,8.8-8.8,8.8h-41.2c-4.9,0-9.6-1.2-13.8-3.3-6.2-3.1-11.2-8.2-14.2-14.4-2.1-4.2-3.2-8.9-3.2-13.8v-58.3c0-4.9,4-8.8,8.9-8.8h0c4.9,0,8.8,4,8.8,8.8v60c.8,6.2,5.7,11.1,11.9,12l42.9.2c4.9,0,8.8,4,8.8,8.8Z"/>
  <path class="st0" d="M488.3,54.8c6.6,0,10.8,6.9,7.8,12.8l-2.5,4.8-41.3,80.9-41.1-81-2.5-4.8c-3-5.8,1.3-12.8,7.8-12.8h0c3.3,0,6.3,1.9,7.8,4.8l6.5,12.8,21.5,42.2,21.6-42.2,6.6-12.8c1.5-2.9,4.5-4.8,7.8-4.8h0Z"/>
  <path class="st0" d="M779,106.1c.8,17,15.5,30.1,32.5,30.1h15.9c8.2,0,14.8-6.6,14.8-14.8v-4s-22.9,0-22.9,0c-4.9,0-8.8-4-8.8-8.8h0c0-4.9,4-8.8,8.8-8.8h27.7c7.1,0,12.8,5.8,12.8,12.8v10.6c0,17-13.8,30.7-30.8,30.7h-17.4c-26.7,0-49.4-20.8-50.4-47.5-1-28,21.5-51.1,49.3-51.1h40.5c4.9,0,8.8,4,8.8,8.9h0c0,4.9-4,8.8-8.8,8.8h-40.5c-18,0-32.6,15-31.7,33.2Z"/>
  <g>
    <g>
      <path class="st0" d="M686,208.9l.8,1.5c.9,1.8-.4,3.9-2.4,3.9s-1.9-.6-2.4-1.5l-2-3.9-2.9-5.6v-.3c-1.1-1.5-2.8-2.6-4.7-2.6h-5.4v11.2c0,1.5-1.2,2.7-2.7,2.7s-2.7-1.2-2.7-2.7v-26.2c0-.7.5-1.2,1.2-1.2h17.8c2.2,0,4.3.9,5.7,2.4,1.5,1.5,2.4,3.5,2.4,5.8,0,3.3-1.9,6.1-4.7,7.4-.7.3-1.5.6-2.3.6l4.3,8.6ZM680.7,195c.4,0,.8,0,1.1-.3,1-.4,1.6-1.4,1.6-2.5s-.5-1.7-.8-2c-.3-.3-1-.8-1.9-.8h-13.7v5.6h13.7Z"/>
      <path class="st0" d="M686,208.9l.8,1.5c.9,1.8-.4,3.9-2.4,3.9s-1.9-.6-2.4-1.5l-2-3.9-2.9-5.6v-.3c-1.1-1.5-2.8-2.6-4.7-2.6h-5.4v11.2c0,1.5-1.2,2.7-2.7,2.7s-2.7-1.2-2.7-2.7v-26.2c0-.7.5-1.2,1.2-1.2h17.8c2.2,0,4.3.9,5.7,2.4,1.5,1.5,2.4,3.5,2.4,5.8,0,3.3-1.9,6.1-4.7,7.4-.7.3-1.5.6-2.3.6l4.3,8.6ZM680.7,195c.4,0,.8,0,1.1-.3,1-.4,1.6-1.4,1.6-2.5s-.5-1.7-.8-2c-.3-.3-1-.8-1.9-.8h-13.7v5.6h13.7Z"/>
    </g>
    <g>
      <path class="st0" d="M723.3,185.6v26c0,1.5-1.2,2.7-2.7,2.7s-2.7-1.2-2.7-2.7v-16.5l-5.3,4-4.4,3.4-4.4-3.4-5.3-4v16.5c0,1.5-1.2,2.7-2.7,2.7s-2.7-1.2-2.7-2.7v-26c0-.6.7-.9,1.1-.6l4.2,3.3,9.7,7.4,9.7-7.4,4.2-3.3c.5-.4,1.1,0,1.1.6"/>
      <path class="st0" d="M723.3,185.6v26c0,1.5-1.2,2.7-2.7,2.7s-2.7-1.2-2.7-2.7v-16.5l-5.3,4-4.4,3.4-4.4-3.4-5.3-4v16.5c0,1.5-1.2,2.7-2.7,2.7s-2.7-1.2-2.7-2.7v-26c0-.6.7-.9,1.1-.6l4.2,3.3,9.7,7.4,9.7-7.4,4.2-3.3c.5-.4,1.1,0,1.1.6"/>
    </g>
    <path class="st0" d="M756.7,199.2c0,8.3-6.8,15.1-15.1,15.1s-15.1-6.8-15.1-15.1,6.8-15.1,15.1-15.1,15.1,6.8,15.1,15.1M751.3,199.2c0-5.3-4.4-9.7-9.7-9.7s-9.7,4.3-9.7,9.7,4.4,9.7,9.7,9.7,9.7-4.3,9.7-9.7"/>
    <g>
      <path class="st0" d="M790,186.8v26.4c0,.4-.5.7-.8.4l-4.6-3.5-19.4-14.9v16.4c0,1.5-1.2,2.7-2.7,2.7s-2.7-1.2-2.7-2.7v-26.3c0-.4.5-.7.8-.4l4.6,3.5,19.4,14.9v-16.5c0-1.5,1.2-2.7,2.7-2.7,1.5,0,2.7,1.2,2.7,2.7"/>
      <path class="st0" d="M790,186.8v26.4c0,.4-.5.7-.8.4l-4.6-3.5-19.4-14.9v16.4c0,1.5-1.2,2.7-2.7,2.7s-2.7-1.2-2.7-2.7v-26.3c0-.4.5-.7.8-.4l4.6,3.5,19.4,14.9v-16.5c0-1.5,1.2-2.7,2.7-2.7,1.5,0,2.7,1.2,2.7,2.7"/>
    </g>
    <g>
      <path class="st0" d="M794.3,211.6v-24.7c0-1.5,1.2-2.7,2.7-2.7s2.7,1.2,2.7,2.7v24.7c0,1.5-1.2,2.7-2.7,2.7s-2.7-1.2-2.7-2.7"/>
      <path class="st0" d="M794.3,211.6v-24.7c0-1.5,1.2-2.7,2.7-2.7s2.7,1.2,2.7,2.7v24.7c0,1.5-1.2,2.7-2.7,2.7s-2.7-1.2-2.7-2.7"/>
    </g>
    <g>
      <path class="st0" d="M656.9,208.2l-11.6-22.8c-1.1-2.1-4.1-2.1-5.1,0l-.2.3c-.4.8-.4,1.8,0,2.6l4.1,8.2,6,11.7,2.3,4.5c.5,1,1.5,1.6,2.6,1.6h.3c2.1,0,3.5-2.3,2.6-4.2l-1-1.9Z"/>
      <path class="st0" d="M656.9,208.2l-11.6-22.8c-1.1-2.1-4.1-2.1-5.1,0l-.2.3c-.4.8-.4,1.8,0,2.6l4.1,8.2,6,11.7,2.3,4.5c.5,1,1.5,1.6,2.6,1.6h.3c2.1,0,3.5-2.3,2.6-4.2l-1-1.9Z"/>
    </g>
    <g>
      <path class="st0" d="M630.4,214.2h0c1.1,0,2.2-.6,2.7-1.6l2.3-4.4,6.1-11.9-3.4-6.7-10.3,20.3c-1,2,.4,4.4,2.7,4.4"/>
      <path class="st0" d="M630.4,214.2h0c1.1,0,2.2-.6,2.7-1.6l2.3-4.4,6.1-11.9-3.4-6.7-10.3,20.2c-1,2,.4,4.4,2.7,4.4"/>
    </g>
    <g>
      <path class="st0" d="M845.8,184.1c-8.3,0-15.1,6.8-15.1,15.1s6.8,15.1,15.1,15.1,15.1-6.8,15.1-15.1-6.8-15.1-15.1-15.1M845.8,208.9c-5.3,0-9.7-4.3-9.7-9.7s4.4-9.7,9.7-9.7,9.7,4.3,9.7,9.7-4.4,9.7-9.7,9.7"/>
      <path class="st0" d="M845.8,184.1c-8.3,0-15.1,6.8-15.1,15.1s6.8,15.1,15.1,15.1,15.1-6.8,15.1-15.1-6.8-15.1-15.1-15.1M845.8,208.9c-5.3,0-9.7-4.3-9.7-9.7s4.4-9.7,9.7-9.7,9.7,4.3,9.7,9.7-4.4,9.7-9.7,9.7"/>
    </g>
    <g>
      <path class="st0" d="M820.5,198.2l7.3-10.5c1.1-1.6.5-3.4-1.3-3.9-1-.3-2.1.1-2.7,1l-14,20.6v-19c0-1.3-1-2.5-2.3-2.6-1.5,0-2.7,1.1-2.7,2.5v24.8c0,1.5,1,2.8,2.4,3.2,1.3.3,2.7-.2,3.4-1.3l7-10.3,6.7,10.4c.5.7,1.3,1.2,2.2,1.2,2.1,0,3.3-2.3,2.1-4l-8-12.1Z"/>
      <path class="st0" d="M820.5,198.2l7.3-10.5c1.1-1.6.5-3.4-1.3-3.9-1-.3-2.1.1-2.7,1l-14,20.6v-19c0-1.3-1-2.5-2.3-2.6-1.5,0-2.7,1.1-2.7,2.5v24.8c0,1.5,1,2.8,2.4,3.2,1.3.3,2.7-.2,3.4-1.3l7-10.3,6.7,10.4c.5.7,1.3,1.2,2.2,1.2,2.1,0,3.3-2.3,2.1-4l-8-12.1Z"/>
    </g>
  </g>
</svg>